<?xml version="1.0" encoding="UTF-8" standalone="no"?>
<svg
   xmlns:dc="http://purl.org/dc/elements/1.1/"
   xmlns:cc="http://creativecommons.org/ns#"
   xmlns:rdf="http://www.w3.org/1999/02/22-rdf-syntax-ns#"
   xmlns:svg="http://www.w3.org/2000/svg"
   xmlns="http://www.w3.org/2000/svg"
   xmlns:xlink="http://www.w3.org/1999/xlink"
   xmlns:sodipodi="http://sodipodi.sourceforge.net/DTD/sodipodi-0.dtd"
   xmlns:inkscape="http://www.inkscape.org/namespaces/inkscape"
   height="65.534195"
   viewBox="0 0 320 65.534197"
   width="320"
   xml:space="preserve"
   version="1.1"
   id="svg10"
   sodipodi:docname="oowow-logo.svg"
   inkscape:version="0.92.5 (2060ec1f9f, 2020-04-08)"><metadata
     id="metadata16"><rdf:RDF><cc:Work
         rdf:about=""><dc:format>image/svg+xml</dc:format><dc:type
           rdf:resource="http://purl.org/dc/dcmitype/StillImage" /></cc:Work></rdf:RDF></metadata><defs
     id="defs14" /><sodipodi:namedview
     pagecolor="#ffffff"
     bordercolor="#666666"
     borderopacity="1"
     objecttolerance="10"
     gridtolerance="10"
     guidetolerance="10"
     inkscape:pageopacity="0"
     inkscape:pageshadow="2"
     inkscape:window-width="1862"
     inkscape:window-height="1009"
     id="namedview12"
     showgrid="false"
     inkscape:zoom="2.8625"
     inkscape:cx="82.469192"
     inkscape:cy="29.972337"
     inkscape:window-x="58"
     inkscape:window-y="34"
     inkscape:window-maximized="1"
     inkscape:current-layer="svg10" /><g
     id="g819"
     style="opacity:1"><path
       id="path8"
       d="m24.7749,9.0001c-6.3462,0-12.3159,2.4738-16.8089,6.9668-4.4975,4.4991-6.9722,10.4751-6.966,16.8285 .006,6.3418 2.4811,12.2999 6.966,16.7705 4.4939,4.4937 10.4627,6.9677 16.8089,6.9677h.0197c6.3416-.0054 12.2999-2.4819 16.7647-6.9611l.0038-.005 .0139-.0139 12.5338-12.5297c7.5e-05,.0005-7.5e-05,.0011 0,.0017l13.7478-13.7446h.0007l.081-.0819c2.5451-2.5529 5.9313-3.9604 9.5359-3.9632h.0115c3.612,0 7.0111,1.409 9.5768,3.9746 2.552,2.5449 3.9594,5.9311 3.9623,9.535 .0023,3.6173-1.4061,7.0194-3.9689,9.5825s-5.9582,3.9689-9.5702,3.9689h-.0115c-3.6046-.0017-6.9913-1.4107-9.5416-3.9689-2.5622-2.5631-3.9718-5.9652-3.9689-9.5825 .0015-1.2926.1827-2.5576.5337-3.7659l-9.9608,9.9591c1.0652,3.9801 3.1605,7.6296 6.1522,10.6214 4.4765,4.4909 10.4354,6.9671 16.777,6.9726h.0197c6.3462,0 12.315-2.4737 16.8081-6.9668 4.4973-4.4991 6.973-10.4751 6.9668-16.8285-.005-6.3418-2.4821-12.2999-6.9668-16.7705-4.4941-4.4938-10.4619-6.9668-16.8081-6.9668h-.0197c-6.3416.0054-12.2999,2.4811-16.7647,6.9603l-.0769.081-.0023-.0025-12.4724,12.4683-2.8752,2.8744-10.8736,10.8703-.0023.0025-.0721.0721-.0068.0075c-2.5449,2.553-5.9313,3.9604-9.5359,3.9631h-.0115c-3.6119,0-7.0111-1.4089-9.5768-3.9746-2.552-2.5449-3.9604-5.9311-3.9632-9.535-.0023-3.6173 1.4069-7.0194 3.9697-9.5825s5.9583-3.9689 9.5702-3.9689h.0115c3.6045.0017 6.9913,1.4107 9.5416,3.9689 2.562,2.563 3.9717,5.9652 3.9689,9.5825-.0015,1.2925-.1833,2.5576-.5346,3.7659l9.9617-9.9592c-1.0653-3.9801-3.1606-7.6297-6.1522-10.6214-4.4767-4.4909-10.4354-6.967-16.777-6.9726h-.0197z"
       style="" /><path
       id="path4"
       d="m199.9503,23.2046c-2.563,2.563-3.9723,5.9655-3.9684,9.5827 .002,3.6039 1.4099,6.9899 3.9621,9.5347 2.5656,2.5657 5.9652,3.9748 9.5772,3.9748h.0106c3.6049-.0029 6.9911-1.4101 9.5358-3.9631 2.5648-2.5565 3.9723-5.9426 3.9748-9.5464 .003-3.6173-1.4065-7.0197-3.9685-9.5827-2.5511-2.5582-5.9373-3.9667-9.5422-3.9685h-.0106c-3.6128,0-7.011,1.4086-9.5709,3.9685zm9.5709,33.3285c-6.3473,0-12.3154-2.4737-16.8092-6.9674-4.4848-4.4705-6.9612-10.4286-6.9666-16.7703-.005-6.3535 2.4692-12.3296 6.9666-16.8288 4.4938-4.4931 10.4619-6.9666 16.8092-6.9666h.0187c6.3419.0056 12.301,2.4817 16.7776,6.9726 4.4921,4.4931 6.9666,10.4693 6.9612,16.8228-.006,6.3418-2.4817,12.2998-6.9737,16.7768-4.4641,4.4792-10.4232,6.9555-16.7651,6.9609z"
       style="" /><path
       id="path6"
       d="m232.0411,10.2878 18.5964,42.5036c.9686,2.2146 3.017,3.6464 5.3437,3.7367 2.2945.0657 4.4483-1.1653 5.5722-3.2759l13.9575-26.1647 13.9768,26.1667c1.0835,2.0304 3.1022,3.27 5.3147,3.2798h.0774 .029l.153-.0059c2.3256-.09 4.3712-1.5202 5.3398-3.7348l18.5985-42.5055h-11.1734l-13.367,30.5481-13.6071-25.4735c-1.0796-2.0194-3.1222-3.2731-5.336-3.2759h-.0194c-2.2135.0045-4.2578,1.2613-5.334,3.2798l-13.5857,25.4639-13.3631-30.5423z"
       style="" /><use
       height="100%"
       width="100%"
       transform="translate(-132)"
       id="use18"
       xlink:href="#path6"
       y="0"
       x="0"
       style="" /></g></svg>