<?xml version="1.0" encoding="UTF-8" standalone="no"?>
<svg
   xmlns:dc="http://purl.org/dc/elements/1.1/"
   xmlns:cc="http://creativecommons.org/ns#"
   xmlns:rdf="http://www.w3.org/1999/02/22-rdf-syntax-ns#"
   xmlns:svg="http://www.w3.org/2000/svg"
   xmlns="http://www.w3.org/2000/svg"
   xmlns:sodipodi="http://sodipodi.sourceforge.net/DTD/sodipodi-0.dtd"
   xmlns:inkscape="http://www.inkscape.org/namespaces/inkscape"
   height="83.517403"
   viewBox="0 0 423.87763 83.517405"
   width="423.87762"
   xml:space="preserve"
   version="1.1"
   id="svg10"
   sodipodi:docname="oowow-logo.svg"
   inkscape:version="0.92.5 (2060ec1f9f, 2020-04-08)"><metadata
     id="metadata16"><rdf:RDF><cc:Work
         rdf:about=""><dc:format>image/svg+xml</dc:format><dc:type
           rdf:resource="http://purl.org/dc/dcmitype/StillImage" /><dc:title></dc:title></cc:Work></rdf:RDF></metadata><defs
     id="defs14" /><sodipodi:namedview
     pagecolor="#ffffff"
     bordercolor="#666666"
     borderopacity="1"
     objecttolerance="10"
     gridtolerance="10"
     guidetolerance="10"
     inkscape:pageopacity="0"
     inkscape:pageshadow="2"
     inkscape:window-width="1862"
     inkscape:window-height="1009"
     id="namedview12"
     showgrid="false"
     fit-margin-top="10"
     fit-margin-left="0"
     fit-margin-right="0"
     fit-margin-bottom="10"
     inkscape:zoom="0.98225264"
     inkscape:cx="98.933293"
     inkscape:cy="41.758666"
     inkscape:window-x="58"
     inkscape:window-y="34"
     inkscape:window-maximized="1"
     inkscape:current-layer="svg10" /><path
     d="m 265.84942,28.9811 c -3.4249,3.4249 -5.308,7.9715 -5.3028,12.805 0.002,4.8158 1.884,9.3403 5.2944,12.7409 3.4283,3.4285 7.9711,5.3114 12.7977,5.3114 h 0.0142 c 4.8171,-0.0038 9.3419,-1.8842 12.7423,-5.2957 3.4273,-3.4162 5.308,-7.9408 5.3114,-12.7565 0.004,-4.8336 -1.8794,-9.3802 -5.3029,-12.805 -3.4089,-3.4184 -7.9338,-5.3006 -12.7508,-5.3029 h -0.0142 c -4.8277,0 -9.3685,1.8822 -12.7892,5.3029 z m 12.7892,44.5356 c -8.4817,0 -16.4566,-3.3055 -22.4615,-9.3103 -5.9929,-5.9737 -9.302,-13.9353 -9.3092,-22.4095 -0.007,-8.4899 3.2995,-16.4756 9.3092,-22.4877 6.0049,-6.004 13.9798,-9.3092 22.4615,-9.3092 h 0.0251 c 8.4745,0.0074 16.4373,3.3162 22.4193,9.3172 6.0026,6.004 9.3092,13.9897 9.302,22.4796 -0.008,8.4743 -3.3161,16.4358 -9.3187,22.4182 -5.9652,5.9854 -13.9281,9.2944 -22.4025,9.3016 z"
     id="path2"
     inkscape:connector-curvature="0" /><path
     d="m 392.13852,52.5418 -18.1814,-34.0394 c -1.4427,-2.6985 -4.1737,-4.3753 -7.1318,-4.3791 h -0.0251 c -2.9578,0.006 -5.69,1.6855 -7.1281,4.3827 l -18.1538,34.0272 -16.8061,-38.4099 h -14.9293 l 23.798,54.3935 c 1.2943,2.9593 4.03,4.8723 7.1391,4.993 3.0661,0.0878 5.9443,-1.5573 7.4461,-4.3776 l 18.652,-34.9624 18.6774,34.9661 c 1.4478,2.7132 4.1453,4.3679 7.1017,4.381 h 0.102 0.0388 l 0.2052,-0.006 c 3.1076,-0.1203 5.842,-2.0335 7.1363,-4.9928 l 23.7981,-54.3916 v -0.003 h -14.928 l -16.8111,38.4186 z"
     id="path4"
     inkscape:connector-curvature="0" /><path
     d="m 246.93912,14.1237 h -14.3972 l -16.8111,38.4198 -18.1824,-34.041 c -1.4417,-2.6972 -4.1729,-4.375 -7.1306,-4.3788 h -0.024 c -2.9577,0.0052 -5.6887,1.6829 -7.1291,4.3827 l -18.1524,34.0272 -16.8063,-38.4099 h -0.5322 -14.3984 l 23.7993,54.3933 c 1.2943,2.9582 4.0292,4.8725 7.1364,4.9917 3.0895,0.105 5.9432,-1.5557 7.4479,-4.3761 l 18.6516,-34.9625 18.6797,34.9697 c 1.4548,2.7211 4.1676,4.3766 7.1341,4.3766 l 0.3161,-0.006 c 3.1062,-0.1217 5.8398,-2.0363 7.1319,-4.9917 l 23.7979,-54.3948 h -0.531 z"
     id="path6"
     inkscape:connector-curvature="0" /><path
     d="m 31.769516,10.0002 c -8.4802,0 -16.4573,3.3056 -22.4611004,9.3095 C 3.2986156,25.3217 -0.00828441,33.3071 1.558622e-5,41.797 0.00801559,50.2713 3.3154156,58.2329 9.3084156,64.2067 15.313416,70.2115 23.289316,73.5174 31.769516,73.5174 h 0.0263 c 8.474,-0.0072 16.4359,-3.3165 22.402,-9.3019 l 0.005,-0.0066 0.0186,-0.0186 16.7484,-16.743 c 1e-4,7e-4 -10e-5,0.0015 0,0.0022 l 18.3707,-18.3664 h 0.001 l 0.1083,-0.1094 c 3.4009,-3.4114 7.9257,-5.2921 12.742404,-5.2958 h 0.0153 c 4.8266,0 9.3687,1.8828 12.7971,5.3111 3.4102,3.4007 5.2908,7.9255 5.2947,12.7413 0.003,4.8336 -1.8789,9.3797 -5.3035,12.8047 -3.4246,3.425 -7.9617,5.3035 -12.7883,5.3035 h -0.0153 c -4.816704,-0.0023 -9.342204,-1.8851 -12.750104,-5.3035 -3.4237,-3.425 -5.3074,-7.9711 -5.3035,-12.8047 0.002,-1.7272 0.2442,-3.4176 0.7132,-5.0322 l -13.3102,13.308 c 1.4234,5.3184 4.2233,10.1951 8.221,14.1929 5.9818,6.001 13.9444,9.3098 22.418404,9.3172 h 0.0263 c 8.4802,0 16.456,-3.3055 22.46,-9.3095 6.0095,-6.012 9.3178,-13.9974 9.3095,-22.4873 -0.007,-8.4743 -3.3167,-16.4359 -9.3095,-22.4097 -6.0053,-6.0049 -13.9798,-9.3095 -22.46,-9.3095 h -0.0263 c -8.474004,0.0072 -16.435904,3.3154 -22.402004,9.3008 l -0.1028,0.1083 -0.003,-0.0033 -16.6664,16.6609 -3.842,3.8409 -14.5299,14.5255 -0.003,0.0033 -0.0963,0.0963 -0.009,0.0099 c -3.4007,3.4115 -7.9258,5.2921 -12.7424,5.2958 h -0.0153 c -4.8264,0 -9.3687,-1.8827 -12.7971,-5.3111 -3.4102,-3.4006 -5.2921,-7.9255 -5.2958,-12.7412 -0.003,-4.8336 1.88,-9.3798 5.3046,-12.8047 3.4246,-3.4249 7.9619,-5.3035 12.7883,-5.3035 h 0.0153 c 4.8166,0.0023 9.3422,1.8851 12.75,5.3035 3.4235,3.4249 5.3072,7.9711 5.3035,12.8047 -0.002,1.7271 -0.245,3.4176 -0.7144,5.0322 l 13.3112,-13.308 c -1.4236,-5.3184 -4.2234,-10.1952 -8.221,-14.1929 -5.982,-6.001 -13.9444,-9.3097 -22.4184,-9.3172 h -0.0263 z"
     id="path8"
     inkscape:connector-curvature="0" /></svg>