<?xml version="1.0" encoding="UTF-8" standalone="no"?>
<svg
   xmlns:dc="http://purl.org/dc/elements/1.1/"
   xmlns:cc="http://creativecommons.org/ns#"
   xmlns:rdf="http://www.w3.org/1999/02/22-rdf-syntax-ns#"
   xmlns:svg="http://www.w3.org/2000/svg"
   xmlns="http://www.w3.org/2000/svg"
   xmlns:sodipodi="http://sodipodi.sourceforge.net/DTD/sodipodi-0.dtd"
   xmlns:inkscape="http://www.inkscape.org/namespaces/inkscape"
   height="67.9515"
   viewBox="0 0 320 67.951502"
   width="320"
   xml:space="preserve"
   version="1.1"
   id="svg12"
   sodipodi:docname="oowow-logo.svg"
   inkscape:version="0.92.5 (2060ec1f9f, 2020-04-08)"><metadata
     id="metadata18"><rdf:RDF><cc:Work
         rdf:about=""><dc:format>image/svg+xml</dc:format><dc:type
           rdf:resource="http://purl.org/dc/dcmitype/StillImage" /></cc:Work></rdf:RDF></metadata><defs
     id="defs16" /><sodipodi:namedview
     pagecolor="#ffffff"
     bordercolor="#666666"
     borderopacity="1"
     objecttolerance="10"
     gridtolerance="10"
     guidetolerance="10"
     inkscape:pageopacity="0"
     inkscape:pageshadow="2"
     inkscape:window-width="1862"
     inkscape:window-height="1009"
     id="namedview14"
     showgrid="false"
     inkscape:zoom="1.3625"
     inkscape:cx="78.53211"
     inkscape:cy="33.97575"
     inkscape:window-x="58"
     inkscape:window-y="34"
     inkscape:window-maximized="1"
     inkscape:current-layer="svg12" /><path
     inkscape:connector-curvature="0"
     id="path2"
     d="m 200.69769,24.329352 c -2.58556,2.58556 -4.00717,6.017924 -4.00325,9.666878 0.002,3.635592 1.42229,7.051273 3.99691,9.618488 2.58812,2.588278 6.01762,4.009735 9.66136,4.009735 h 0.0107 c 3.63658,-0.0029 7.05248,-1.422439 9.61955,-3.997882 2.58737,-2.578992 4.00717,-5.994749 4.00973,-9.630265 0.003,-3.64903 -1.41881,-7.081394 -4.00331,-9.666879 -2.57349,-2.580652 -5.98947,-4.001582 -9.62597,-4.003318 h -0.0107 c -3.64457,0 -7.07256,1.420929 -9.65495,4.003318 z m 9.65495,33.62126 c -6.40309,0 -12.42358,-2.495421 -16.95686,-7.028624 -4.52422,-4.509726 -7.02236,-10.520176 -7.0278,-16.917604 -0.005,-6.40928 2.4909,-12.437925 7.0278,-16.97664 4.53328,-4.532599 10.55377,-7.027794 16.95686,-7.027794 h 0.0189 c 6.39765,0.00559 12.40901,2.503499 16.925,7.033834 4.53154,4.5326 7.02779,10.561244 7.02236,16.970524 -0.006,6.397504 -2.50343,12.407879 -7.03497,16.924172 -4.50331,4.518558 -10.51474,7.016621 -16.91232,7.022057 z"
     style="stroke-width:0.75493002;fill:#000080" /><path
     inkscape:connector-curvature="0"
     id="path4"
     d="M 296.03712,42.116031 282.31143,16.418667 c -1.08913,-2.037179 -3.15085,-3.303045 -5.38401,-3.305914 h -0.0189 c -2.23293,0.0045 -4.29555,1.272434 -5.38121,3.308632 L 257.82241,42.109539 245.13498,13.112753 H 233.8644 l 17.96583,41.063285 c 0.9771,2.234064 3.04237,3.678245 5.38952,3.769365 2.31469,0.06628 4.48753,-1.175652 5.62128,-3.304781 l 14.08096,-26.394165 14.10013,26.396958 c 1.09299,2.048276 3.12941,3.297459 5.36128,3.307348 h 0.077 0.0293 l 0.15491,-0.0045 c 2.34602,-0.09082 4.4103,-1.53515 5.38741,-3.769215 l 17.9659,-41.06185 v -0.0023 h -11.2696 l -12.6912,29.003354 z"
     style="stroke-width:0.75493002;fill:#000080" /><path
     inkscape:connector-curvature="0"
     id="path6"
     d="M 186.42173,13.113055 H 175.55286 L 162.86165,42.117314 149.13521,16.418742 c -1.08838,-2.036197 -3.15024,-3.302818 -5.3831,-3.305687 h -0.0181 c -2.23286,0.0039 -4.29457,1.270472 -5.38197,3.308632 L 124.64823,42.109841 111.96065,13.113055 h -0.40178 -10.86978 l 17.96681,41.063134 c 0.9771,2.233234 3.04176,3.678396 5.38748,3.768384 2.33235,0.07927 4.4867,-1.174445 5.62264,-3.303649 l 14.08065,-26.39424 14.10187,26.399675 c 1.09827,2.05424 3.14625,3.304027 5.38575,3.304027 l 0.23863,-0.0045 c 2.34496,-0.09188 4.40864,-1.537264 5.38408,-3.768384 l 17.96575,-41.064266 h -0.40086 z"
     style="stroke-width:0.75493002;fill:#000080" /><path
     inkscape:connector-curvature="0"
     id="path8"
     d="m 23.983749,10.000101 c -6.401958,0 -12.42411,2.495497 -16.9565586,7.028021 C 2.4902121,21.566761 -0.00626592,27.595179 0,34.004459 c 0.00603944,6.397504 2.5028949,12.407954 7.0271904,16.917755 4.5333546,4.533204 10.5546006,7.028927 16.9565586,7.028927 h 0.01985 c 6.397277,-0.0054 12.407954,-2.503726 16.911942,-7.022284 l 0.0038,-0.005 0.01404,-0.01404 12.643869,-12.639793 c 7.6e-5,5.29e-4 -7.5e-5,0.0011 0,0.0017 L 67.445824,24.406355 h 7.55e-4 l 0.08176,-0.08259 c 2.567441,-2.575368 5.983348,-3.995165 9.61962,-3.997958 h 0.01155 c 3.643745,0 7.072713,1.421382 9.660915,4.009509 2.574462,2.56729 3.994183,5.983197 3.997128,9.618789 0.0023,3.64903 -1.418438,7.081017 -4.003772,9.666653 -2.585333,2.585635 -6.010526,4.003771 -9.654271,4.003771 h -0.01155 c -3.636272,-0.0017 -7.052708,-1.423119 -9.625433,-4.003771 -2.584654,-2.585636 -4.006716,-6.017623 -4.003772,-9.666653 0.0015,-1.303915 0.184354,-2.580048 0.538416,-3.798958 L 54.0089,40.201755 c 1.074567,4.01502 3.188296,7.696587 6.20628,10.714646 4.51584,4.530335 10.527046,7.028247 16.924322,7.033834 h 0.01986 c 6.401957,0 12.423128,-2.495421 16.955728,-7.028021 4.536752,-4.538639 7.03428,-10.567057 7.02802,-16.976337 -0.005,-6.397504 -2.503876,-12.407954 -7.02802,-16.917755 -4.533581,-4.533279 -10.553771,-7.028021 -16.955728,-7.028021 h -0.01986 c -6.397276,0.0054 -12.407954,2.502895 -16.911942,7.021453 l -0.07761,0.08176 -0.0023,-0.0025 -12.581965,12.577813 -2.900442,2.89961 -10.969057,10.965736 -0.0023,0.0025 -0.0727,0.0727 -0.0068,0.0075 c -2.56729,2.575444 -5.983424,3.995165 -9.61962,3.997958 h -0.01155 c -3.643594,0 -7.072713,-1.421306 -9.660915,-4.009508 -2.574462,-2.567215 -3.995165,-5.983198 -3.997958,-9.618715 -0.0023,-3.649029 1.419268,-7.081092 4.004601,-9.666652 2.585334,-2.585559 6.010678,-4.003771 9.654272,-4.003771 h 0.01155 c 3.636196,0.0017 7.052707,1.423119 9.625358,4.003771 2.584502,2.58556 4.006564,6.017623 4.003771,9.666652 -0.0015,1.30384 -0.184958,2.580049 -0.539322,3.798959 L 47.133677,27.748732 C 46.058959,23.733712 43.945306,20.052069 40.927398,17.034086 36.411406,12.503751 30.400352,10.005914 24.003075,10.000252 h -0.01985 z"
     style="stroke-width:0.75493002;fill:#000080" /></svg>