<svg height="133.40253" viewBox="0 0 776.7859 133.40253" width="776.78589" xml:space="preserve" xmlns="http://www.w3.org/2000/svg"><path d="m484.6428,43.8902c-6.1148,6.1148-9.4768,14.2321-9.4676,22.8619 .004,8.598 3.3637,16.676 9.4525,22.7473 6.1209,6.1211 14.2314,9.4829 22.8487,9.4829h.0253c8.6003-.0067 16.6789-3.3641 22.7499-9.4549 6.1191-6.0993 9.4768-14.1773 9.4829-22.7753 .008-8.6298-3.3554-16.7472-9.4677-22.8619-6.0862-6.1032-14.1649-9.4636-22.7651-9.4677h-.0253c-8.6192,0-16.7264,3.3604-22.8337,9.4677zm22.8337,79.5131c-15.143,0-29.3813-5.9015-40.1023-16.6224-10.6997-10.6654-16.6076-24.8798-16.6204-40.0096-.0133-15.1577 5.8908-29.4153 16.6204-40.1491 10.721-10.7194 24.9593-16.6204 40.1023-16.6204h.0449c15.1302.0133 29.3469,5.9207 40.027,16.6348 10.7169,10.7194 16.6205,24.977 16.6076,40.1347-.0136,15.1298-5.9205,29.3442-16.6374,40.0251-10.6502,10.6862-24.8669,16.594-39.9971,16.6069z"/><path d="m710.1171,85.955-32.4607-60.7734c-2.5757-4.8179-7.4517-7.8116-12.7329-7.8184h-.0449c-5.2808.0107-10.1589,3.0093-12.7264,7.8248l-32.4113,60.7516-30.0053-68.5764h-26.6546l42.4886,97.1132c2.3108,5.2835 7.1951,8.6989 12.746,8.9144 5.4742.1568 10.6129-2.7803 13.2941-7.8157l33.301-62.4213 33.3463,62.4278c2.5848,4.8441 7.401,7.7983 12.6792,7.8217h.1821 .0692c.1213-.0008.2431-.004.3663-.0107 5.5483-.2147 10.4302-3.6305 12.741-8.914l42.4887-97.1098v-.0053h-26.6521l-30.0143,68.5918z"/><path d="m450.8807,17.364h-25.7045l-30.0143,68.5941-32.4626-60.7762c-2.5739-4.8155-7.4502-7.811-12.7309-7.8178h-.0428c-5.2806.0093-10.1566,3.0047-12.7282,7.8248l-32.409,60.7516-30.0057-68.5764h-.9501-25.7067l42.4908,97.1128c2.3108,5.2815 7.1936,8.6993 12.7412,8.9121 5.5159.1875 10.6109-2.7776 13.2974-7.813l33.3002-62.4214 33.3505,62.4342c2.5973,4.8582 7.4408,7.8139 12.737,7.8139 .1875,0 .3749-.003.5643-.0107 5.5457-.2173 10.4262-3.6356 12.7332-8.9121l42.4883-97.1155h-.948z"/><path d="m66.7207,10.002c-15.1404,0-29.3825,5.9017-40.1016,16.6211-10.7297,10.7338-16.6338,24.9907-16.6191,40.1484 .0136,15.1298 5.9193,29.3443 16.6191,40.0098 10.7213,10.7209 24.9612,16.6231 40.1016,16.6231h.0469c15.1294-.0129 29.3443-5.9212 39.9961-16.6074l.0098-.0117 .0332-.0332 29.9023-29.8926c.0002.0013-.0002.0026 0,.0039l32.7988-32.791h.002l.1934-.1953c6.0719-6.0907 14.1504-9.4484 22.75-9.4551h.0273c8.6173,0 16.7267,3.3615 22.8477,9.4824 6.0885,6.0715 9.4461,14.1501 9.4531,22.748 .006,8.6298-3.3546,16.7464-9.4688,22.8613s-14.2147,9.4688-22.832,9.4688h-.0273c-8.5996-.0041-16.6794-3.3656-22.7637-9.4688-6.1127-6.1149-9.4758-14.2315-9.4688-22.8613 .0031-3.0837.436-6.1017 1.2734-8.9844l-23.7637,23.7598c2.5413,9.4953 7.5402,18.2021 14.6777,25.3398 10.6798,10.7141 24.896,16.6215 40.0254,16.6348h.0469c15.1404,0 29.3802-5.9015 40.0996-16.6211 10.7293-10.7338 16.6358-24.9907 16.6211-40.1484-.0133-15.1298-5.9216-29.3443-16.6211-40.0098-10.7217-10.721-24.9592-16.6211-40.0996-16.6211h-.0469c-15.1294.0128-29.3443,5.9192-39.9961,16.6055-.0631.0629-.1208.1302-.1836.1934l-.0059-.0059-29.7559,29.7461-6.8594,6.8574-25.9414,25.9336-.0059.0059-.1719.1719-.0156.0176c-6.0715,6.0908-14.1506,9.4484-22.75,9.4551h-.0273c-8.6169,0-16.7267-3.3614-22.8477-9.4824-6.0885-6.0713-9.4484-14.1501-9.4551-22.748-.006-8.6298 3.3566-16.7465 9.4707-22.8613s14.2151-9.4688 22.832-9.4688h.0273c8.5994.0041 16.6794,3.3656 22.7637,9.4688 6.1123,6.1148 9.4754,14.2315 9.4688,22.8613-.0031,3.0836-.4375,6.1017-1.2754,8.9844l23.7656-23.7598c-2.5417-9.4953-7.5404-18.2023-14.6777-25.3398-10.6801-10.7141-24.896-16.6214-40.0254-16.6348h-.0469z"/></svg>